<svg width="314" height="376" viewBox="0 0 314 376" fill="none" xmlns="http://www.w3.org/2000/svg">
<g clip-path="url(#clip0_247_74)">
<path fill-rule="evenodd" clip-rule="evenodd" d="M233.128 123.174C233.128 164.506 199.591 198.012 158.219 198.012C116.85 198.012 83.3134 164.506 83.3134 123.174C83.3134 81.8421 116.85 48.338 158.219 48.338C199.591 48.338 233.128 81.8421 233.128 123.174Z" fill="#07B29A"/>
<path fill-rule="evenodd" clip-rule="evenodd" d="M108.444 179.1V180.837L108.682 181.036C121.809 192.039 138.737 198.675 157.215 198.675C138.715 198.673 121.794 191.182 108.682 180.191C108.53 180.064 108.444 179.88 108.444 179.684V179.1Z" fill="#0D908C"/>
<path fill-rule="evenodd" clip-rule="evenodd" d="M205.997 93.1697H111.746C110.292 93.1697 109.109 94.3512 109.109 95.8046V179.684C122.122 190.589 138.897 198.012 157.214 198.012C177.13 198.012 195.216 191.161 208.636 178.498V95.8046C208.636 94.3512 207.452 93.1697 205.997 93.1697Z" fill="white"/>
<path fill-rule="evenodd" clip-rule="evenodd" d="M205.997 93.1696V92.5066H111.746C109.923 92.5079 108.445 93.9852 108.444 95.8046V179.684C108.444 179.88 108.53 180.064 108.682 180.191C121.794 191.182 138.715 198.673 157.215 198.675C177.281 198.676 195.542 191.768 209.091 178.979C209.223 178.855 209.298 178.68 209.298 178.498V95.8046C209.297 93.9852 207.821 92.5079 205.997 92.5066V93.834C207.084 93.8353 207.968 94.7199 207.971 95.8046V178.498H208.636L208.179 178.015C194.891 190.555 176.979 197.347 157.215 197.349C139.08 197.35 122.45 189.999 109.534 179.176L109.109 179.684H109.771V95.8046C109.774 94.7199 110.658 93.8353 111.746 93.834H205.997V93.1696Z" fill="#068989"/>
<path fill-rule="evenodd" clip-rule="evenodd" d="M163.007 135.459H200.612C200.978 135.459 201.276 135.162 201.276 134.796C201.276 134.43 200.978 134.133 200.612 134.133H163.007C162.639 134.133 162.343 134.43 162.343 134.796C162.343 135.162 162.639 135.459 163.007 135.459Z" fill="#068989"/>
<path fill-rule="evenodd" clip-rule="evenodd" d="M208.634 111.493H109.109V95.9439C109.109 94.4122 110.35 93.1697 111.884 93.1697H205.859C207.392 93.1697 208.634 94.4122 208.634 95.9439V111.493Z" fill="#24D3B5"/>
<path fill-rule="evenodd" clip-rule="evenodd" d="M201.049 42.3214C201.049 43.2364 200.308 43.9777 199.392 43.9777C198.476 43.9777 197.734 43.2364 197.734 42.3214C197.734 41.4077 198.476 40.6664 199.392 40.6664C200.308 40.6664 201.049 41.4077 201.049 42.3214Z" fill="#068989"/>
<path fill-rule="evenodd" clip-rule="evenodd" d="M82.2382 70.7478C82.2382 71.6628 81.4962 72.4041 80.5817 72.4041C79.6658 72.4041 78.9238 71.6628 78.9238 70.7478C78.9238 69.8341 79.6658 69.0928 80.5817 69.0928C81.4962 69.0928 82.2382 69.8341 82.2382 70.7478Z" fill="#068989"/>
<path fill-rule="evenodd" clip-rule="evenodd" d="M161.508 48.3234C161.508 49.8086 160.303 51.0127 158.817 51.0127C157.33 51.0127 156.123 49.8086 156.123 48.3234C156.123 46.8381 157.33 45.634 158.817 45.634C160.303 45.634 161.508 46.8381 161.508 48.3234Z" fill="#068989"/>
<path fill-rule="evenodd" clip-rule="evenodd" d="M85.9654 123.168C85.9654 124.653 84.7601 125.857 83.2735 125.857C81.7856 125.857 80.5817 124.653 80.5817 123.168C80.5817 121.682 81.7856 120.478 83.2735 120.478C84.7601 120.478 85.9654 121.682 85.9654 123.168Z" fill="#068989"/>
<path fill-rule="evenodd" clip-rule="evenodd" d="M235.793 123.168C235.793 124.653 234.588 125.857 233.101 125.857C231.615 125.857 230.41 124.653 230.41 123.168C230.41 121.682 231.615 120.478 233.101 120.478C234.588 120.478 235.793 121.682 235.793 123.168Z" fill="#068989"/>
<path fill-rule="evenodd" clip-rule="evenodd" d="M110.167 112.142H204.838C205.205 112.142 205.503 111.845 205.503 111.479C205.503 111.112 205.205 110.816 204.838 110.816H110.167C109.8 110.816 109.503 111.112 109.503 111.479C109.503 111.845 109.8 112.142 110.167 112.142Z" fill="#068989"/>
<path fill-rule="evenodd" clip-rule="evenodd" d="M63.8705 88.6662H72.6057C72.9721 88.6662 73.2707 88.3691 73.2707 88.0031C73.2707 87.6371 72.9721 87.3401 72.6057 87.3401H63.8705C63.5041 87.3401 63.2081 87.6371 63.2081 88.0031C63.2081 88.3691 63.5041 88.6662 63.8705 88.6662Z" fill="#068989"/>
<path fill-rule="evenodd" clip-rule="evenodd" d="M68.9024 92.366V83.6389C68.9024 83.2729 68.6051 82.9758 68.2387 82.9758C67.8711 82.9758 67.5751 83.2729 67.5751 83.6389V92.366C67.5751 92.7333 67.8711 93.0291 68.2387 93.0291C68.6051 93.0291 68.9024 92.7333 68.9024 92.366Z" fill="#068989"/>
<path fill-rule="evenodd" clip-rule="evenodd" d="M244.523 151.587H253.258C253.625 151.587 253.922 151.29 253.922 150.924C253.922 150.557 253.625 150.261 253.258 150.261H244.523C244.157 150.261 243.859 150.557 243.859 150.924C243.859 151.29 244.157 151.587 244.523 151.587Z" fill="#068989"/>
<path fill-rule="evenodd" clip-rule="evenodd" d="M249.555 155.287V146.56C249.555 146.194 249.258 145.897 248.89 145.897C248.524 145.897 248.226 146.194 248.226 146.56V155.287C248.226 155.653 248.524 155.95 248.89 155.95C249.258 155.95 249.555 155.653 249.555 155.287Z" fill="#068989"/>
<path fill-rule="evenodd" clip-rule="evenodd" d="M127.931 28.8773V31.1224C127.931 31.4884 128.228 31.7854 128.594 31.7854C128.961 31.7854 129.258 31.4884 129.258 31.1224V28.8773C129.258 28.5113 128.961 28.2142 128.594 28.2142C128.228 28.2142 127.931 28.5113 127.931 28.8773Z" fill="#068989"/>
<path fill-rule="evenodd" clip-rule="evenodd" d="M127.931 36.8379V39.0843C127.931 39.4503 128.228 39.7474 128.594 39.7474C128.961 39.7474 129.258 39.4503 129.258 39.0843V36.8379C129.258 36.4719 128.961 36.1749 128.594 36.1749C128.228 36.1749 127.931 36.4719 127.931 36.8379Z" fill="#068989"/>
<path fill-rule="evenodd" clip-rule="evenodd" d="M133.804 33.4193H131.557C131.191 33.4193 130.893 33.7163 130.893 34.0823C130.893 34.4483 131.191 34.7454 131.557 34.7454H133.804C134.171 34.7454 134.468 34.4483 134.468 34.0823C134.468 33.7163 134.171 33.4193 133.804 33.4193Z" fill="#068989"/>
<path fill-rule="evenodd" clip-rule="evenodd" d="M125.784 33.4193H123.537C123.171 33.4193 122.875 33.7163 122.875 34.0823C122.875 34.4483 123.171 34.7454 123.537 34.7454H125.784C126.151 34.7454 126.448 34.4483 126.448 34.0823C126.448 33.7163 126.151 33.4193 125.784 33.4193Z" fill="#068989"/>
<path fill-rule="evenodd" clip-rule="evenodd" d="M131.882 29.86L130.292 31.4473C130.035 31.7072 130.035 32.1263 130.292 32.3849C130.552 32.6448 130.972 32.6448 131.232 32.3849L132.821 30.7975C133.079 30.5389 133.079 30.1185 132.821 29.86C132.562 29.6014 132.141 29.6014 131.882 29.86Z" fill="#068989"/>
<path fill-rule="evenodd" clip-rule="evenodd" d="M132.821 37.1628L131.232 35.5755C130.972 35.3169 130.552 35.3169 130.292 35.5755C130.035 35.8341 130.035 36.2544 130.292 36.513L131.882 38.1004C132.141 38.3603 132.562 38.3603 132.821 38.1004C133.079 37.8418 133.079 37.4227 132.821 37.1628Z" fill="#068989"/>
<path fill-rule="evenodd" clip-rule="evenodd" d="M124.352 30.7975L125.941 32.3849C126.2 32.6448 126.621 32.6448 126.881 32.3849C127.14 32.1263 127.14 31.7072 126.881 31.4473L125.291 29.86C125.032 29.6014 124.611 29.6014 124.352 29.86C124.093 30.1185 124.093 30.5389 124.352 30.7975Z" fill="#068989"/>
<path fill-rule="evenodd" clip-rule="evenodd" d="M125.291 38.1004L126.881 36.513C127.14 36.2544 127.14 35.8341 126.881 35.5755C126.621 35.3169 126.2 35.3169 125.941 35.5755L124.352 37.1628C124.093 37.4227 124.093 37.8418 124.352 38.1004C124.611 38.3603 125.032 38.3603 125.291 38.1004Z" fill="#068989"/>
<path fill-rule="evenodd" clip-rule="evenodd" d="M217.449 40.9435H216.784C216.782 42.4328 215.575 43.6369 214.086 43.6408C212.595 43.6369 211.389 42.4328 211.386 40.9435C211.389 39.4543 212.595 38.2502 214.086 38.2476C215.575 38.2502 216.782 39.4543 216.784 40.9435H218.112C218.112 38.7223 216.309 36.9214 214.086 36.9214C211.861 36.9214 210.06 38.7223 210.06 40.9435C210.06 43.1661 211.861 44.9656 214.086 44.9656C216.309 44.9656 218.112 43.1661 218.112 40.9435H217.449Z" fill="#068989"/>
<path fill-rule="evenodd" clip-rule="evenodd" d="M213.033 55.5493H221.769C222.135 55.5493 222.432 55.2536 222.432 54.8863C222.432 54.5202 222.135 54.2232 221.769 54.2232H213.033C212.666 54.2232 212.37 54.5202 212.37 54.8863C212.37 55.2536 212.666 55.5493 213.033 55.5493Z" fill="#DAF6F2"/>
<path fill-rule="evenodd" clip-rule="evenodd" d="M218.064 59.2504V50.5233C218.064 50.1573 217.767 49.8603 217.402 49.8603C217.034 49.8603 216.737 50.1573 216.737 50.5233V59.2504C216.737 59.6165 217.034 59.9135 217.402 59.9135C217.767 59.9135 218.064 59.6165 218.064 59.2504Z" fill="#DAF6F2"/>
<path fill-rule="evenodd" clip-rule="evenodd" d="M250.59 129.211V131.023C250.59 131.389 250.886 131.685 251.254 131.685C251.619 131.685 251.918 131.389 251.918 131.023V129.211C251.918 128.845 251.619 128.548 251.254 128.548C250.886 128.548 250.59 128.845 250.59 129.211Z" fill="#DAF6F2"/>
<path fill-rule="evenodd" clip-rule="evenodd" d="M250.59 135.636V137.448C250.59 137.814 250.886 138.111 251.254 138.111C251.619 138.111 251.918 137.814 251.918 137.448V135.636C251.918 135.27 251.619 134.973 251.254 134.973C250.886 134.973 250.59 135.27 250.59 135.636Z" fill="#DAF6F2"/>
<path fill-rule="evenodd" clip-rule="evenodd" d="M255.459 132.749H253.645C253.278 132.749 252.981 133.046 252.981 133.412C252.981 133.778 253.278 134.075 253.645 134.075H255.459C255.825 134.075 256.123 133.778 256.123 133.412C256.123 133.046 255.825 132.749 255.459 132.749Z" fill="#DAF6F2"/>
<path fill-rule="evenodd" clip-rule="evenodd" d="M248.986 132.749H247.171C246.805 132.749 246.509 133.046 246.509 133.412C246.509 133.778 246.805 134.075 247.171 134.075H248.986C249.352 134.075 249.649 133.778 249.649 133.412C249.649 133.046 249.352 132.749 248.986 132.749Z" fill="#DAF6F2"/>
<path fill-rule="evenodd" clip-rule="evenodd" d="M253.817 129.913L252.534 131.194C252.275 131.453 252.275 131.873 252.534 132.132C252.793 132.392 253.213 132.392 253.473 132.132L254.756 130.851C255.015 130.592 255.015 130.172 254.756 129.913C254.496 129.654 254.076 129.654 253.817 129.913Z" fill="#DAF6F2"/>
<path fill-rule="evenodd" clip-rule="evenodd" d="M254.756 135.808L253.473 134.527C253.213 134.267 252.793 134.267 252.534 134.527C252.275 134.786 252.275 135.205 252.534 135.465L253.817 136.746C254.076 137.004 254.496 137.004 254.756 136.746C255.015 136.487 255.015 136.067 254.756 135.808Z" fill="#DAF6F2"/>
<path fill-rule="evenodd" clip-rule="evenodd" d="M247.738 130.851L249.02 132.132C249.28 132.392 249.701 132.392 249.96 132.132C250.219 131.873 250.219 131.453 249.96 131.194L248.678 129.913C248.419 129.654 247.998 129.654 247.738 129.913C247.479 130.172 247.479 130.592 247.738 130.851Z" fill="#DAF6F2"/>
<path fill-rule="evenodd" clip-rule="evenodd" d="M248.678 136.746L249.96 135.465C250.219 135.205 250.219 134.786 249.96 134.527C249.701 134.267 249.28 134.267 249.02 134.527L247.738 135.808C247.479 136.067 247.479 136.487 247.738 136.746C247.998 137.004 248.419 137.004 248.678 136.746Z" fill="#DAF6F2"/>
<path fill-rule="evenodd" clip-rule="evenodd" d="M63.8704 74.1082H63.2081C63.2041 75.5974 61.9975 76.8015 60.5082 76.8042C59.0163 76.8015 57.8124 75.5974 57.8084 74.1082C57.8124 72.619 59.0163 71.4135 60.5082 71.4109C61.9975 71.4135 63.2041 72.619 63.2081 74.1082H64.5341C64.5341 71.8856 62.7315 70.0861 60.5082 70.0848C58.2836 70.0861 56.4811 71.8856 56.4811 74.1082C56.4811 76.3294 58.2836 78.1303 60.5082 78.1303C62.7315 78.1303 64.5341 76.3294 64.5341 74.1082H63.8704Z" fill="#DAF6F2"/>
<path fill-rule="evenodd" clip-rule="evenodd" d="M126.157 118.887C125.216 117.701 123.156 117.362 122.32 117.394C121.68 117.418 121.117 117.528 120.612 117.807C120.05 117.335 119.166 117.093 119.084 117.245C118.982 117.433 119.214 118.429 119.458 118.972C119.276 119.32 119.116 120.015 119.116 120.578C119.116 121.105 119.239 121.528 119.442 121.876C118.793 121.957 118.104 122.162 117.451 122.6C117.925 122.611 118.318 122.673 118.59 122.748L118.533 122.8L118.414 122.906L118.132 123.179L118.118 123.197C117.999 123.321 117.885 123.453 117.796 123.592C118.585 123.32 119.202 123.278 119.345 123.369C119.487 123.462 120.017 123.404 120.243 123.067L120.407 122.874C120.425 123.763 120.732 124.787 120.732 124.787L120.742 124.825L120.893 125.295L120.928 125.403L120.97 125.49L120.965 125.492L121.009 125.565L121.035 125.606L121.137 125.667L121.155 125.661L121.244 125.613L121.279 125.565L121.315 125.515L121.309 125.509L121.362 125.411L121.4 125.304L121.569 124.978C121.648 124.878 122.931 124.872 122.972 125.003C123.012 125.135 123.126 125.443 123.126 125.443L123.167 125.529L123.162 125.532L123.205 125.605L123.231 125.646L123.335 125.707L123.351 125.7L123.44 125.653L123.476 125.604L123.513 125.555L123.505 125.548L123.558 125.451L123.597 125.344L123.76 124.869L123.765 124.85L123.769 124.841C123.769 124.841 123.85 124.578 123.937 124.206L124.096 124.328L124.202 124.393L124.233 124.409L124.253 124.421L124.318 124.45L124.328 124.455L124.332 124.458L124.388 124.48L124.397 124.484L124.474 124.508L124.502 124.515L124.586 124.533L124.64 124.545H124.669L124.956 124.547L124.851 124.544H125.016C125.149 124.523 125.281 124.479 125.41 124.403L125.506 124.341L125.552 124.305L125.595 124.267L125.625 124.239L125.669 124.193L125.742 124.104C125.831 123.983 125.91 123.841 125.93 123.682C126.029 122.905 125.476 122.575 125.129 122.55C124.579 122.507 124.361 122.754 124.276 122.908C124.21 123.002 124.17 123.116 124.168 123.239C124.162 123.568 124.426 123.84 124.76 123.846L124.765 123.845L124.967 123.808L125.045 123.772L125.109 123.731L125.194 123.675L125.17 123.735L125.15 123.772L125.145 123.781L125.126 123.807L125.06 123.878L124.888 123.971L124.692 124.003L124.596 123.996L124.55 123.99L124.505 123.978L124.42 123.951L124.344 123.918L124.23 123.857L124.034 123.721C124.088 123.414 124.128 123.083 124.129 122.775C124.904 122.414 125.414 121.755 125.425 120.69C125.429 120.267 125.352 119.721 125.228 119.368L125.313 119.347L125.528 119.279L125.636 119.24L125.741 119.198L125.92 119.118L125.99 119.08L126.043 119.05L126.075 119.027L126.086 119.019L126.084 119.015L126.072 119.022L126.052 119.031L126.157 118.887Z" fill="#068989"/>
<path fill-rule="evenodd" clip-rule="evenodd" d="M178.364 123.032H171.797C171.432 123.032 171.137 122.736 171.137 122.373V122.001C171.137 121.636 171.432 121.341 171.797 121.341H178.364C178.728 121.341 179.024 121.636 179.024 122.001V122.373C179.024 122.736 178.728 123.032 178.364 123.032Z" fill="#068989"/>
<path fill-rule="evenodd" clip-rule="evenodd" d="M190.18 123.032H183.613C183.249 123.032 182.953 122.736 182.953 122.373V122.001C182.953 121.636 183.249 121.341 183.613 121.341H190.18C190.544 121.341 190.84 121.636 190.84 122.001V122.373C190.84 122.736 190.544 123.032 190.18 123.032Z" fill="#068989"/>
<path fill-rule="evenodd" clip-rule="evenodd" d="M201.996 123.032H195.43C195.065 123.032 194.77 122.736 194.77 122.373V122.001C194.77 121.636 195.065 121.341 195.43 121.341H201.996C202.361 121.341 202.656 121.636 202.656 122.001V122.373C202.656 122.736 202.361 123.032 201.996 123.032Z" fill="#068989"/>
<path fill-rule="evenodd" clip-rule="evenodd" d="M163.007 142.68H200.612C200.978 142.68 201.276 142.383 201.276 142.017C201.276 141.651 200.978 141.354 200.612 141.354H163.007C162.639 141.354 162.343 141.651 162.343 142.017C162.343 142.383 162.639 142.68 163.007 142.68Z" fill="#068989"/>
<path fill-rule="evenodd" clip-rule="evenodd" d="M163.007 149.901H183.014C183.379 149.901 183.676 149.604 183.676 149.238C183.676 148.872 183.379 148.574 183.014 148.574H163.007C162.639 148.574 162.343 148.872 162.343 149.238C162.343 149.604 162.639 149.901 163.007 149.901Z" fill="#068989"/>
<path fill-rule="evenodd" clip-rule="evenodd" d="M118.588 134.516H150.204V153.049H118.588V134.516Z" fill="#B5E9E1"/>
<path fill-rule="evenodd" clip-rule="evenodd" d="M153.547 153.049V152.386H119.251V131.879H152.883V153.049H153.547H154.209V131.216C154.209 131.038 154.142 130.872 154.017 130.746C153.891 130.622 153.724 130.553 153.547 130.553H118.588C118.414 130.553 118.242 130.623 118.119 130.746C117.996 130.87 117.924 131.041 117.924 131.216V153.049C117.924 153.224 117.996 153.395 118.119 153.518C118.242 153.641 118.414 153.712 118.588 153.712H153.547C153.724 153.712 153.891 153.643 154.017 153.518C154.142 153.392 154.209 153.226 154.209 153.049H153.547Z" fill="#068989"/>
<path fill-rule="evenodd" clip-rule="evenodd" d="M118.588 162.156H197.27V180.687H118.588V162.156Z" fill="#24D3B0"/>
<path fill-rule="evenodd" clip-rule="evenodd" d="M119.933 102.284C119.933 103.199 119.184 103.94 118.258 103.94C117.332 103.94 116.582 103.199 116.582 102.284C116.582 101.37 117.332 100.628 118.258 100.628C119.184 100.628 119.933 101.37 119.933 102.284Z" fill="#1AA8A4"/>
<path fill-rule="evenodd" clip-rule="evenodd" d="M119.933 102.284H119.27C119.268 102.826 118.822 103.276 118.258 103.277C117.693 103.276 117.247 102.826 117.246 102.284C117.247 101.742 117.693 101.292 118.258 101.291C118.822 101.292 119.268 101.742 119.27 102.284H120.597C120.596 100.998 119.543 99.9673 118.258 99.9646C116.971 99.9673 115.92 100.998 115.918 102.284C115.92 103.57 116.971 104.601 118.258 104.603C119.543 104.601 120.596 103.57 120.597 102.284H119.933Z" fill="#068989"/>
<path fill-rule="evenodd" clip-rule="evenodd" d="M126.428 102.284C126.428 103.199 125.678 103.94 124.752 103.94C123.826 103.94 123.077 103.199 123.077 102.284C123.077 101.37 123.826 100.628 124.752 100.628C125.678 100.628 126.428 101.37 126.428 102.284Z" fill="#1AA8A4"/>
<path fill-rule="evenodd" clip-rule="evenodd" d="M126.428 102.284H125.764C125.763 102.826 125.317 103.277 124.752 103.277C124.188 103.277 123.74 102.826 123.739 102.284C123.74 101.742 124.188 101.292 124.752 101.291C125.317 101.292 125.763 101.742 125.764 102.284H127.092C127.09 100.998 126.039 99.9673 124.752 99.9646C123.465 99.9673 122.414 100.998 122.413 102.284C122.414 103.57 123.465 104.601 124.752 104.603C126.039 104.601 127.09 103.57 127.092 102.284H126.428Z" fill="#068989"/>
<path fill-rule="evenodd" clip-rule="evenodd" d="M132.923 102.284C132.923 103.199 132.172 103.94 131.246 103.94C130.321 103.94 129.57 103.199 129.57 102.284C129.57 101.37 130.321 100.628 131.246 100.628C132.172 100.628 132.923 101.37 132.923 102.284Z" fill="#1AA8A4"/>
<path fill-rule="evenodd" clip-rule="evenodd" d="M132.923 102.284H132.259C132.258 102.826 131.81 103.277 131.246 103.277C130.682 103.277 130.235 102.826 130.234 102.284C130.235 101.742 130.682 101.292 131.246 101.291C131.81 101.292 132.258 101.742 132.259 102.284H133.585C133.584 100.998 132.533 99.9673 131.246 99.9646C129.959 99.9673 128.908 100.998 128.906 102.284C128.908 103.57 129.959 104.601 131.246 104.603C132.533 104.601 133.584 103.57 133.585 102.284H132.923Z" fill="#068989"/>
<path fill-rule="evenodd" clip-rule="evenodd" d="M200.575 180.687V180.024H119.251V159.517H199.911V180.687H200.575H201.237V158.854C201.237 158.677 201.169 158.511 201.045 158.385C200.919 158.26 200.751 158.191 200.575 158.191H118.588C118.414 158.191 118.242 158.262 118.119 158.385C117.996 158.508 117.924 158.679 117.924 158.854V180.687C117.924 180.862 117.996 181.032 118.119 181.157C118.242 181.28 118.414 181.35 118.588 181.35H200.575C200.751 181.35 200.919 181.282 201.045 181.156C201.169 181.031 201.237 180.865 201.237 180.687H200.575Z" fill="#068989"/>
<path fill-rule="evenodd" clip-rule="evenodd" d="M205.997 93.1696V92.5066H111.746C109.923 92.5079 108.445 93.9852 108.444 95.8059V179.684C108.444 179.88 108.53 180.064 108.682 180.191C121.794 191.181 138.714 198.675 157.213 198.675C177.281 198.676 195.542 191.768 209.09 178.979C209.223 178.855 209.298 178.68 209.298 178.498V95.8059C209.298 93.9852 207.82 92.5079 205.997 92.5066V93.8327C207.084 93.8353 207.968 94.7185 207.971 95.8059V178.498H208.634L208.179 178.015C194.891 190.556 176.979 197.347 157.213 197.349C139.08 197.35 122.45 189.999 109.535 179.176L109.109 179.684H109.771V95.8059C109.774 94.7185 110.658 93.8353 111.746 93.8327H205.997V93.1696Z" fill="#068989"/>
<path fill-rule="evenodd" clip-rule="evenodd" d="M84.8372 111.577C89.7815 80.0823 114.571 55.1568 146.016 49.9783C146.377 49.9187 146.622 49.5779 146.563 49.2158C146.503 48.8551 146.162 48.6098 145.801 48.6695C113.788 53.9447 88.563 79.3079 83.5257 111.372C83.4687 111.734 83.7169 112.073 84.0793 112.129C84.4416 112.186 84.7814 111.939 84.8385 111.577H84.8372Z" fill="#068989"/>
<path fill-rule="evenodd" clip-rule="evenodd" d="M231.458 135.242C225.688 170.466 195.078 197.35 158.187 197.349C120.714 197.35 89.7231 169.613 84.6606 133.572C84.6101 133.209 84.2743 132.957 83.912 133.007C83.5483 133.058 83.2961 133.393 83.3465 133.757C88.5006 170.447 120.044 198.673 158.187 198.675C195.739 198.673 226.895 171.315 232.77 135.455C232.828 135.095 232.584 134.754 232.221 134.694C231.859 134.636 231.518 134.88 231.459 135.242H231.458Z" fill="#068989"/>
<path fill-rule="evenodd" clip-rule="evenodd" d="M170.128 49.9412C201.923 55.0745 226.96 80.3899 231.647 112.304C231.7 112.667 232.037 112.918 232.401 112.865C232.763 112.812 233.014 112.474 232.962 112.112C228.186 79.6208 202.709 53.8598 170.341 48.631C169.978 48.5726 169.637 48.8193 169.579 49.18C169.52 49.542 169.767 49.8815 170.128 49.9412Z" fill="#068989"/>
</g>
<defs>
<clipPath id="clip0_247_74">
<rect width="313.253" height="375.554" fill="white"/>
</clipPath>
</defs>
</svg>
